<?xml version="1.0" encoding="UTF-8"?>
<svg xmlns="http://www.w3.org/2000/svg" viewBox="0 0 1154.94 589.81">
  <defs>
    <style>
      .cls-1 {
        opacity: .65;
      }

      .cls-1, .cls-2 {
        fill: #08104d;
      }

      .cls-1, .cls-2, .cls-3, .cls-4, .cls-5, .cls-6 {
        stroke-width: 0px;
      }

      .cls-7 {
        stroke: #ff7200;
      }

      .cls-7, .cls-8, .cls-9, .cls-10, .cls-11, .cls-12, .cls-13, .cls-14, .cls-15 {
        fill: none;
        stroke-linecap: round;
        stroke-linejoin: round;
        stroke-width: 6.38px;
      }

      .cls-8 {
        stroke: #ffb900;
      }

      .cls-9 {
        stroke: #ff4095;
      }

      .cls-10 {
        stroke: #fff700;
      }

      .cls-11 {
        stroke: #e8003e;
      }

      .cls-12 {
        stroke: #00e6ff;
      }

      .cls-13 {
        stroke: #7400e8;
      }

      .cls-14 {
        stroke: #0083e8;
      }

      .cls-15 {
        stroke: #9be800;
      }

      .cls-3 {
        fill: #ff7200;
      }

      .cls-4 {
        fill: #ff4095;
      }

      .cls-5 {
        fill: #ffb900;
      }

      .cls-6 {
        fill: #00e6ff;
      }
    </style>
  </defs>
  <g id="BACKGROUND">
    <rect class="cls-2" x="0" y="0" width="1154.94" height="589.53"/>
  </g>
  <g id="OBJECTS">
    <g>
      <polyline class="cls-8" points="3.38 201.34 17.41 197.75 20.88 183.26 34.91 179.67 38.38 165.17 52.41 161.58 55.89 147.08"/>
      <polyline class="cls-12" points="146.24 6.1 149.72 20.6 163.74 24.18 167.22 38.68 181.25 42.27 184.72 56.76 198.75 60.36"/>
      <path class="cls-15" d="M89.47,202.3c6.19,0,6.19,5.36,12.38,5.36s6.19-5.36,12.37-5.36,6.19,5.36,12.38,5.36,6.19-5.36,12.38-5.36,6.19,5.36,12.38,5.36,6.19-5.36,12.38-5.36"/>
      <polygon class="cls-11" points="49.92 272.52 15.35 272.52 15.35 236.8 49.92 272.52"/>
      <polygon class="cls-11" points="382.03 305.78 382.03 270.05 416.6 270.05 382.03 305.78"/>
      <polygon class="cls-12" points="276.8 169.89 301.24 144.63 325.69 169.89 276.8 169.89"/>
      <line class="cls-14" x1="24.6" y1="110.27" x2="24.6" y2="136.89"/>
      <line class="cls-14" x1="149.37" y1="260.64" x2="131.15" y2="279.46"/>
      <line class="cls-13" x1="88.96" y1="103.1" x2="63.2" y2="103.1"/>
      <line class="cls-9" x1="359.3" y1="13.37" x2="333.54" y2="13.37"/>
      <line class="cls-13" x1="349.95" y1="247.19" x2="349.95" y2="264.89"/>
      <line class="cls-13" x1="358.52" y1="256.04" x2="341.38" y2="256.04"/>
      <line class="cls-11" x1="409.23" y1="24.05" x2="397.12" y2="11.53"/>
      <line class="cls-11" x1="397.12" y1="24.05" x2="409.23" y2="11.53"/>
      <line class="cls-7" x1="365.36" y1="149.15" x2="353.25" y2="136.63"/>
      <line class="cls-7" x1="353.25" y1="149.15" x2="365.36" y2="136.63"/>
      <path class="cls-7" d="M50.57,66.79c0,4.05-3.17,7.33-7.09,7.33s-7.09-3.28-7.09-7.33,3.17-7.33,7.09-7.33,7.09,3.28,7.09,7.33Z"/>
      <path class="cls-7" d="M448.31,216.99c0,13.29-10.42,24.06-23.28,24.06s-23.28-10.77-23.28-24.06,10.42-24.06,23.28-24.06,23.28,10.77,23.28,24.06Z"/>
      <path class="cls-3" d="M292.52,24.81c0,2.58-2.02,4.66-4.51,4.66s-4.51-2.09-4.51-4.66,2.02-4.66,4.51-4.66,4.51,2.09,4.51,4.66Z"/>
      <path class="cls-4" d="M63.02,212.33c0,2.58-2.02,4.66-4.51,4.66s-4.51-2.09-4.51-4.66,2.02-4.66,4.51-4.66,4.51,2.09,4.51,4.66Z"/>
      <path class="cls-5" d="M305.76,196.96c0,2.58-2.02,4.66-4.51,4.66s-4.51-2.09-4.51-4.66,2.02-4.66,4.51-4.66,4.51,2.09,4.51,4.66Z"/>
      <path class="cls-6" d="M16.64,8.62c0,2.58-2.02,4.66-4.51,4.66s-4.51-2.09-4.51-4.66,2.02-4.66,4.51-4.66,4.51,2.09,4.51,4.66Z"/>
      <rect class="cls-12" x="83.97" y="239.49" width="19.22" height="19.86"/>
      <polygon class="cls-7" points="149.37 86.04 135.77 72 149.37 57.95 162.96 72 149.37 86.04"/>
      <path class="cls-10" d="M219.22,236.8c-7.08,0-12.81-5.93-12.81-13.24"/>
      <path class="cls-13" d="M297.87,93.43c0-21.34,16.74-38.63,37.39-38.63"/>
      <path class="cls-9" d="M79.35,12.25c10.62,0,19.22,8.89,19.22,19.86s-8.61,19.86-19.22,19.86"/>
      <path class="cls-11" d="M70.91,162.75c0-10.97,8.61-19.86,19.22-19.86s19.22,8.89,19.22,19.86"/>
      <polyline class="cls-8" points="431.75 135.62 417.72 139.21 414.25 153.7 400.22 157.29 396.75 171.79 382.72 175.38 379.24 189.87"/>
      <path class="cls-9" d="M283.92,121.53c-6.19,0-6.19-5.36-12.38-5.36s-6.19,5.36-12.37,5.36-6.19-5.36-12.38-5.36-6.19,5.36-12.38,5.36-6.19-5.36-12.38-5.36-6.19,5.36-12.38,5.36"/>
      <polygon class="cls-13" points="204.48 178.72 225.72 178.72 225.72 200.67 204.48 178.72"/>
      <rect class="cls-12" x="233.7" y="53.31" width="19.22" height="19.86"/>
      <path class="cls-11" d="M320.46,216.93c0,10.97-8.61,19.86-19.22,19.86s-19.22-8.89-19.22-19.86"/>
      <path class="cls-9" d="M268.78,287.91c0-10.97,8.61-19.86,19.22-19.86s19.22,8.89,19.22,19.86"/>
      <line class="cls-15" x1="43.48" y1="8.62" x2="12.13" y2="41.01"/>
      <polygon class="cls-8" points="210.33 31.57 225.72 4.01 241.12 31.57 210.33 31.57"/>
      <polygon class="cls-8" points="182.99 262.07 209.66 277.98 182.99 293.9 182.99 262.07"/>
      <polygon class="cls-10" points="160.63 115.88 184.57 115.88 174.02 138.42 186.58 138.42 154.02 169.89 160.34 147.85 149.37 147.85 160.63 115.88"/>
      <polygon class="cls-14" points="371.9 55.04 395.84 55.04 385.29 77.59 397.85 77.59 365.29 109.06 371.61 87.01 360.63 87.01 371.9 55.04"/>
    </g>
    <g>
      <polyline class="cls-8" points="5.05 522.16 19.08 518.57 22.55 504.08 36.58 500.49 40.05 485.99 54.08 482.4 57.56 467.9"/>
      <polyline class="cls-12" points="118.18 307.78 121.66 322.27 135.68 325.86 139.16 340.36 153.19 343.94 156.66 358.44 170.69 362.03"/>
      <path class="cls-15" d="M87.66,537.62c6.19,0,6.19,5.36,12.38,5.36s6.19-5.36,12.37-5.36,6.19,5.36,12.38,5.36,6.19-5.36,12.38-5.36,6.19,5.36,12.38,5.36,6.19-5.36,12.38-5.36"/>
      <polygon class="cls-11" points="53.86 582.52 19.29 582.52 19.29 546.8 53.86 582.52"/>
      <polygon class="cls-12" points="274.99 505.21 299.44 479.95 323.88 505.21 274.99 505.21"/>
      <line class="cls-14" x1="22.79" y1="445.59" x2="22.79" y2="472.21"/>
      <line class="cls-13" x1="87.16" y1="438.42" x2="61.4" y2="438.42"/>
      <line class="cls-9" x1="357.5" y1="348.68" x2="331.74" y2="348.69"/>
      <line class="cls-11" x1="407.43" y1="359.37" x2="395.31" y2="346.85"/>
      <line class="cls-11" x1="395.31" y1="359.37" x2="407.43" y2="346.85"/>
      <line class="cls-7" x1="363.56" y1="484.47" x2="351.44" y2="471.95"/>
      <line class="cls-7" x1="351.44" y1="484.47" x2="363.56" y2="471.95"/>
      <path class="cls-7" d="M48.76,402.11c0,4.05-3.17,7.33-7.09,7.33s-7.09-3.28-7.09-7.33,3.17-7.33,7.09-7.33,7.09,3.28,7.09,7.33Z"/>
      <path class="cls-7" d="M446.5,552.31c0,13.29-10.42,24.06-23.28,24.06s-23.28-10.77-23.28-24.06,10.42-24.06,23.28-24.06,23.28,10.77,23.28,24.06Z"/>
      <path class="cls-3" d="M290.72,360.13c0,2.58-2.02,4.66-4.51,4.66s-4.51-2.09-4.51-4.66,2.02-4.66,4.51-4.66,4.51,2.09,4.51,4.66Z"/>
      <path class="cls-4" d="M61.21,547.64c0,2.58-2.02,4.66-4.51,4.66s-4.51-2.09-4.51-4.66,2.02-4.66,4.51-4.66,4.51,2.09,4.51,4.66Z"/>
      <path class="cls-5" d="M303.95,532.28c0,2.58-2.02,4.66-4.51,4.66s-4.51-2.09-4.51-4.66,2.02-4.66,4.51-4.66,4.51,2.09,4.51,4.66Z"/>
      <path class="cls-6" d="M14.84,343.94c0,2.58-2.02,4.66-4.51,4.66s-4.51-2.09-4.51-4.66,2.02-4.66,4.51-4.66,4.51,2.09,4.51,4.66Z"/>
      <rect class="cls-12" x="82.16" y="564.88" width="19.22" height="19.86"/>
      <polygon class="cls-7" points="147.56 421.36 133.97 407.32 147.56 393.27 161.15 407.32 147.56 421.36"/>
      <path class="cls-10" d="M217.41,572.12c-7.08,0-12.81-5.93-12.81-13.24"/>
      <path class="cls-13" d="M296.07,428.75c0-21.34,16.74-38.63,37.39-38.63"/>
      <path class="cls-9" d="M77.55,347.57c10.62,0,19.22,8.89,19.22,19.86s-8.61,19.86-19.22,19.86"/>
      <path class="cls-11" d="M69.1,498.07c0-10.97,8.61-19.86,19.22-19.86s19.22,8.89,19.22,19.86"/>
      <polyline class="cls-8" points="429.95 470.94 415.92 474.53 412.45 489.02 398.42 492.61 394.94 507.11 380.91 510.7 377.44 525.19"/>
      <path class="cls-9" d="M282.12,456.85c-6.19,0-6.19-5.36-12.38-5.36s-6.19,5.36-12.37,5.36-6.19-5.36-12.38-5.36-6.19,5.36-12.38,5.36-6.19-5.36-12.38-5.36-6.19,5.36-12.38,5.36"/>
      <polygon class="cls-13" points="202.67 514.04 223.92 514.04 223.92 535.99 202.67 514.04"/>
      <rect class="cls-12" x="231.9" y="388.63" width="19.22" height="19.86"/>
      <path class="cls-11" d="M318.66,552.25c0,10.97-8.61,19.86-19.22,19.86s-19.22-8.89-19.22-19.86"/>
      <path class="cls-9" d="M39.28,317.71c0-10.97,8.61-19.86,19.22-19.86s19.22,8.89,19.22,19.86"/>
      <line class="cls-15" x1="41.67" y1="343.94" x2="10.32" y2="376.33"/>
      <polygon class="cls-8" points="219.7 348.68 235.1 321.13 250.5 348.68 219.7 348.68"/>
      <polygon class="cls-10" points="158.82 451.2 182.76 451.2 172.21 473.74 184.77 473.74 152.22 505.21 158.54 483.17 147.56 483.17 158.82 451.2"/>
      <polygon class="cls-14" points="370.09 390.36 394.03 390.36 383.48 412.91 396.04 412.91 363.49 444.38 369.81 422.33 358.83 422.33 370.09 390.36"/>
    </g>
    <polygon class="cls-12" points="915.61 335.61 891.16 360.87 866.72 335.61 915.61 335.61"/>
    <g>
      <path class="cls-5" d="M896.57,24.81c0-2.58,2.02-4.66,4.51-4.66s4.51,2.09,4.51,4.66-2.02,4.66-4.51,4.66-4.51-2.09-4.51-4.66Z"/>
      <polygon class="cls-8" points="941.57 44.82 926.17 72.38 910.77 44.82 941.57 44.82"/>
    </g>
  </g>
  <g id="OBJECTS_copy_2" data-name="OBJECTS copy 2">
    <g>
      <polyline class="cls-8" points="418.8 73.15 432.83 76.74 436.3 91.24 450.33 94.82 453.81 109.32 467.84 112.91 471.32 127.41"/>
      <polyline class="cls-12" points="552.92 320.12 556.39 305.63 570.42 302.04 573.89 287.54 587.92 283.95 591.4 269.46 605.43 265.87"/>
      <path class="cls-15" d="M522.4,90.28c6.19,0,6.19-5.36,12.38-5.36s6.19,5.36,12.37,5.36,6.19-5.36,12.38-5.36,6.19,5.36,12.38,5.36,6.19-5.36,12.38-5.36,6.19,5.36,12.38,5.36"/>
      <polygon class="cls-11" points="482.85 20.06 448.28 20.06 448.28 55.78 482.85 20.06"/>
      <polygon class="cls-11" points="814.96 4.67 814.96 40.39 849.53 40.39 814.96 4.67"/>
      <polygon class="cls-12" points="709.73 122.69 734.17 147.95 758.62 122.69 709.73 122.69"/>
      <line class="cls-14" x1="582.3" y1="31.94" x2="564.08" y2="13.11"/>
      <line class="cls-13" x1="521.9" y1="189.48" x2="496.13" y2="189.48"/>
      <line class="cls-9" x1="792.24" y1="279.21" x2="766.48" y2="279.21"/>
      <line class="cls-13" x1="782.88" y1="45.39" x2="782.88" y2="27.69"/>
      <line class="cls-13" x1="791.45" y1="36.54" x2="774.31" y2="36.54"/>
      <line class="cls-11" x1="842.17" y1="268.53" x2="830.05" y2="281.05"/>
      <line class="cls-11" x1="830.05" y1="268.53" x2="842.17" y2="281.05"/>
      <line class="cls-7" x1="798.3" y1="143.43" x2="786.18" y2="155.95"/>
      <line class="cls-7" x1="786.18" y1="143.43" x2="798.3" y2="155.95"/>
      <path class="cls-7" d="M881.24,75.59c0-13.29-10.42-24.06-23.28-24.06s-23.28,10.77-23.28,24.06,10.42,24.06,23.28,24.06,23.28-10.77,23.28-24.06Z"/>
      <path class="cls-3" d="M725.45,267.77c0-2.58-2.02-4.66-4.51-4.66s-4.51,2.09-4.51,4.66,2.02,4.66,4.51,4.66,4.51-2.09,4.51-4.66Z"/>
      <path class="cls-4" d="M495.95,80.25c0-2.58-2.02-4.66-4.51-4.66s-4.51,2.09-4.51,4.66,2.02,4.66,4.51,4.66,4.51-2.09,4.51-4.66Z"/>
      <path class="cls-5" d="M738.69,95.62c0-2.58-2.02-4.66-4.51-4.66s-4.51,2.09-4.51,4.66,2.02,4.66,4.51,4.66,4.51-2.09,4.51-4.66Z"/>
      <path class="cls-6" d="M465.57,283.96c0-2.58-2.02-4.66-4.51-4.66s-4.51,2.09-4.51,4.66,2.02,4.66,4.51,4.66,4.51-2.09,4.51-4.66Z"/>
      <rect class="cls-12" x="516.9" y="33.23" width="19.22" height="19.86"/>
      <polygon class="cls-7" points="582.3 206.54 568.7 220.58 582.3 234.62 595.89 220.58 582.3 206.54"/>
      <path class="cls-10" d="M652.15,55.78c-7.08,0-12.81,5.93-12.81,13.24"/>
      <path class="cls-13" d="M730.81,199.15c0,21.34,16.74,38.63,37.39,38.63"/>
      <path class="cls-9" d="M521.9,280.33c10.62,0,19.22-8.89,19.22-19.86s-8.61-19.86-19.22-19.86"/>
      <path class="cls-11" d="M503.84,129.83c0,10.97,8.61,19.86,19.22,19.86s19.22-8.89,19.22-19.86"/>
      <polyline class="cls-8" points="864.68 156.96 850.65 153.37 847.18 138.88 833.15 135.29 829.68 120.79 815.65 117.2 812.17 102.7"/>
      <path class="cls-9" d="M716.86,171.05c-6.19,0-6.19,5.36-12.38,5.36s-6.19-5.36-12.37-5.36-6.19,5.36-12.38,5.36-6.19-5.36-12.38-5.36-6.19,5.36-12.38,5.36-6.19-5.36-12.38-5.36"/>
      <polygon class="cls-13" points="637.41 113.86 658.66 113.86 658.66 91.91 637.41 113.86"/>
      <rect class="cls-12" x="666.64" y="219.41" width="19.22" height="19.86"/>
      <path class="cls-11" d="M753.4,75.65c0-10.97-8.61-19.86-19.22-19.86s-19.22,8.89-19.22,19.86"/>
      <path class="cls-9" d="M701.72,4.66c0,10.97,8.61,19.86,19.22,19.86s19.22-8.89,19.22-19.86"/>
      <line class="cls-15" x1="498.53" y1="267.77" x2="467.18" y2="235.38"/>
      <polygon class="cls-8" points="654.44 279.21 669.84 306.77 685.24 279.21 654.44 279.21"/>
      <polygon class="cls-8" points="615.92 40.44 642.59 24.53 615.92 8.62 615.92 40.44"/>
      <polygon class="cls-10" points="593.56 176.7 617.5 176.7 606.95 154.16 619.51 154.16 586.96 122.69 593.28 144.73 582.3 144.73 593.56 176.7"/>
      <polygon class="cls-14" points="804.83 237.54 828.77 237.54 818.22 214.99 830.78 214.99 798.23 183.52 804.55 205.56 793.57 205.56 804.83 237.54"/>
      <path class="cls-4" d="M470.08,169.89c0-2.58-2.02-4.66-4.51-4.66s-4.51,2.09-4.51,4.66,2.02,4.66,4.51,4.66,4.51-2.09,4.51-4.66Z"/>
    </g>
    <g>
      <polyline class="cls-8" points="417 408.47 431.03 412.06 434.5 426.55 448.53 430.14 452 444.64 466.04 448.23 469.51 462.73"/>
      <path class="cls-15" d="M520.59,425.6c6.19,0,6.19-5.36,12.38-5.36s6.19,5.36,12.37,5.36,6.19-5.36,12.38-5.36,6.19,5.36,12.38,5.36,6.19-5.36,12.38-5.36,6.19,5.36,12.38,5.36"/>
      <polygon class="cls-11" points="481.05 355.38 446.47 355.38 446.47 391.1 481.05 355.38"/>
      <polygon class="cls-11" points="813.15 322.12 813.15 357.84 847.73 357.84 813.15 322.12"/>
      <polygon class="cls-12" points="707.92 458.01 732.37 483.27 756.81 458.01 707.92 458.01"/>
      <line class="cls-14" x1="580.49" y1="367.26" x2="562.28" y2="348.43"/>
      <line class="cls-13" x1="520.09" y1="524.8" x2="494.33" y2="524.8"/>
      <line class="cls-13" x1="781.07" y1="380.71" x2="781.07" y2="363"/>
      <line class="cls-13" x1="789.64" y1="371.86" x2="772.51" y2="371.86"/>
      <line class="cls-7" x1="796.49" y1="478.75" x2="784.37" y2="491.27"/>
      <line class="cls-7" x1="784.37" y1="478.75" x2="796.49" y2="491.27"/>
      <path class="cls-7" d="M879.44,410.91c0-13.29-10.42-24.06-23.28-24.06s-23.28,10.77-23.28,24.06,10.42,24.06,23.28,24.06,23.28-10.77,23.28-24.06Z"/>
      <path class="cls-4" d="M494.15,415.57c0-2.58-2.02-4.66-4.51-4.66s-4.51,2.09-4.51,4.66,2.02,4.66,4.51,4.66,4.51-2.09,4.51-4.66Z"/>
      <path class="cls-5" d="M736.88,430.94c0-2.58-2.02-4.66-4.51-4.66s-4.51,2.09-4.51,4.66,2.02,4.66,4.51,4.66,4.51-2.09,4.51-4.66Z"/>
      <path class="cls-6" d="M365.36,564.66c0-2.58-2.02-4.66-4.51-4.66s-4.51,2.09-4.51,4.66,2.02,4.66,4.51,4.66,4.51-2.09,4.51-4.66Z"/>
      <rect class="cls-12" x="515.09" y="368.55" width="19.22" height="19.86"/>
      <polygon class="cls-7" points="580.49 541.86 566.9 555.9 580.49 569.94 594.08 555.9 580.49 541.86"/>
      <path class="cls-10" d="M650.34,391.1c-7.08,0-12.81,5.93-12.81,13.24"/>
      <path class="cls-13" d="M729,534.47c0,21.34,16.74,38.63,37.39,38.63"/>
      <path class="cls-9" d="M530.87,580.03c10.62,0,19.22-8.89,19.22-19.86s-8.61-19.86-19.22-19.86"/>
      <path class="cls-11" d="M502.03,465.15c0,10.97,8.61,19.86,19.22,19.86s19.22-8.89,19.22-19.86"/>
      <polyline class="cls-8" points="862.88 492.28 848.85 488.69 845.38 474.2 831.35 470.61 827.88 456.11 813.84 452.52 810.37 438.02"/>
      <path class="cls-9" d="M715.05,506.37c-6.19,0-6.19,5.36-12.38,5.36s-6.19-5.36-12.37-5.36-6.19,5.36-12.38,5.36-6.19-5.36-12.38-5.36-6.19,5.36-12.38,5.36-6.19-5.36-12.38-5.36"/>
      <polygon class="cls-13" points="635.6 449.18 656.85 449.18 656.85 427.23 635.6 449.18"/>
      <rect class="cls-12" x="664.83" y="554.73" width="19.22" height="19.86"/>
      <path class="cls-11" d="M751.59,410.96c0-10.97-8.61-19.86-19.22-19.86s-19.22,8.89-19.22,19.86"/>
      <path class="cls-9" d="M699.91,339.98c0,10.97,8.61,19.86,19.22,19.86s19.22-8.89,19.22-19.86"/>
      <line class="cls-15" x1="500.79" y1="576.37" x2="469.44" y2="543.98"/>
      <polygon class="cls-8" points="614.12 365.83 640.79 349.91 614.12 334 614.12 365.83"/>
      <polygon class="cls-10" points="591.76 512.02 615.7 512.02 605.15 489.47 617.71 489.47 585.15 458.01 591.47 480.05 580.49 480.05 591.76 512.02"/>
      <polygon class="cls-14" points="803.03 572.86 826.97 572.86 816.41 550.31 828.98 550.31 796.42 518.84 802.74 540.88 791.76 540.88 803.03 572.86"/>
      <path class="cls-4" d="M468.28,505.21c0-2.58-2.02-4.66-4.51-4.66s-4.51,2.09-4.51,4.66,2.02,4.66,4.51,4.66,4.51-2.09,4.51-4.66Z"/>
      <path class="cls-6" d="M529.22,4.66c0-2.58-2.02-4.66-4.51-4.66s-4.51,2.09-4.51,4.66,2.02,4.66,4.51,4.66,4.51-2.09,4.51-4.66Z"/>
    </g>
    <g>
      <polygon class="cls-11" points="894.34 582.52 894.34 546.8 859.77 546.8 894.34 582.52"/>
      <polygon class="cls-12" points="1072.6 460.93 1048.15 435.67 1023.71 460.93 1072.6 460.93"/>
      <line class="cls-9" x1="990.09" y1="304.4" x2="1015.85" y2="304.41"/>
      <line class="cls-13" x1="999.45" y1="538.23" x2="999.45" y2="555.93"/>
      <line class="cls-13" x1="990.88" y1="547.08" x2="1008.02" y2="547.08"/>
      <line class="cls-11" x1="940.16" y1="315.09" x2="952.28" y2="302.57"/>
      <line class="cls-11" x1="952.28" y1="315.09" x2="940.16" y2="302.57"/>
      <line class="cls-7" x1="984.03" y1="440.19" x2="996.15" y2="427.67"/>
      <line class="cls-7" x1="996.15" y1="440.19" x2="984.03" y2="427.67"/>
      <path class="cls-7" d="M901.09,508.03c0,13.29,10.42,24.06,23.28,24.06s23.28-10.77,23.28-24.06-10.42-24.06-23.28-24.06-23.28,10.77-23.28,24.06Z"/>
      <path class="cls-3" d="M1056.87,315.85c0,2.58,2.02,4.66,4.51,4.66s4.51-2.09,4.51-4.66-2.02-4.66-4.51-4.66-4.51,2.09-4.51,4.66Z"/>
      <path class="cls-5" d="M1043.64,488c0,2.58,2.02,4.66,4.51,4.66s4.51-2.09,4.51-4.66-2.02-4.66-4.51-4.66-4.51,2.09-4.51,4.66Z"/>
      <path class="cls-10" d="M1130.18,527.84c7.08,0,12.81-5.93,12.81-13.24"/>
      <path class="cls-13" d="M1051.52,384.47c0-21.34-16.74-38.63-37.39-38.63"/>
      <polyline class="cls-8" points="917.64 426.66 931.67 430.25 935.14 444.74 949.17 448.33 952.65 462.83 966.68 466.42 970.15 480.91"/>
      <path class="cls-9" d="M1065.47,412.57c6.19,0,6.19-5.36,12.38-5.36s6.19,5.36,12.37,5.36,6.19-5.36,12.38-5.36,6.19,5.36,12.38,5.36,6.19-5.36,12.38-5.36,6.19,5.36,12.38,5.36"/>
      <polygon class="cls-13" points="1144.92 469.76 1123.67 469.76 1123.67 491.71 1144.92 469.76"/>
      <rect class="cls-12" x="1096.47" y="344.35" width="19.22" height="19.86"/>
      <path class="cls-11" d="M1028.93,507.97c0,10.97,8.61,19.86,19.22,19.86s19.22-8.89,19.22-19.86"/>
      <path class="cls-9" d="M1080.61,578.95c0-10.97-8.61-19.86-19.22-19.86s-19.22,8.89-19.22,19.86"/>
      <polygon class="cls-8" points="1127.89 304.4 1112.49 276.85 1097.09 304.4 1127.89 304.4"/>
      <polygon class="cls-8" points="1132.75 547.08 1106.08 562.99 1132.75 578.9 1132.75 547.08"/>
      <polygon class="cls-14" points="977.5 346.08 953.56 346.08 964.11 368.63 951.55 368.63 984.1 400.1 977.78 378.05 988.76 378.05 977.5 346.08"/>
    </g>
    <g>
      <polygon class="cls-11" points="969.17 261.5 969.17 225.77 934.6 225.77 969.17 261.5"/>
      <polygon class="cls-12" points="1074.4 125.61 1049.96 100.35 1025.51 125.61 1074.4 125.61"/>
      <line class="cls-13" x1="1001.25" y1="202.91" x2="1001.25" y2="220.61"/>
      <line class="cls-13" x1="992.68" y1="211.76" x2="1009.82" y2="211.76"/>
      <line class="cls-7" x1="985.84" y1="104.87" x2="997.95" y2="92.35"/>
      <line class="cls-7" x1="997.95" y1="104.87" x2="985.84" y2="92.35"/>
      <path class="cls-7" d="M902.89,172.71c0,13.29,10.42,24.06,23.28,24.06s23.28-10.77,23.28-24.06-10.42-24.06-23.28-24.06-23.28,10.77-23.28,24.06Z"/>
      <path class="cls-5" d="M1045.44,152.68c0,2.58,2.02,4.66,4.51,4.66s4.51-2.09,4.51-4.66-2.02-4.66-4.51-4.66-4.51,2.09-4.51,4.66Z"/>
      <path class="cls-10" d="M1131.98,192.52c7.08,0,12.81-5.93,12.81-13.24"/>
      <path class="cls-13" d="M1053.32,49.15c0-21.34-16.74-38.63-37.39-38.63"/>
      <polyline class="cls-8" points="919.45 91.34 933.48 94.93 936.95 109.42 950.98 113.01 954.45 127.51 968.48 131.1 971.96 145.59"/>
      <path class="cls-9" d="M1067.28,77.25c6.19,0,6.19-5.36,12.38-5.36s6.19,5.36,12.37,5.36,6.19-5.36,12.38-5.36,6.19,5.36,12.38,5.36,6.19-5.36,12.38-5.36,6.19,5.36,12.38,5.36"/>
      <polygon class="cls-13" points="1146.72 134.44 1125.47 134.44 1125.47 156.39 1146.72 134.44"/>
      <rect class="cls-12" x="1098.27" y="9.03" width="19.22" height="19.86"/>
      <path class="cls-11" d="M1030.74,172.65c0,10.97,8.61,19.86,19.22,19.86s19.22-8.89,19.22-19.86"/>
      <path class="cls-9" d="M1082.42,243.63c0-10.97-8.61-19.86-19.22-19.86s-19.22,8.89-19.22,19.86"/>
      <polygon class="cls-8" points="1141.22 220.61 1114.55 236.53 1141.22 252.44 1141.22 220.61"/>
      <polygon class="cls-10" points="898.51 229.04 874.57 229.04 885.12 251.58 872.56 251.58 905.11 283.05 898.79 261.01 909.77 261.01 898.51 229.04"/>
      <polygon class="cls-14" points="979.3 10.76 955.36 10.76 965.91 33.31 953.35 33.31 985.91 64.78 979.59 42.73 990.57 42.73 979.3 10.76"/>
    </g>
  </g>
  <g id="Layer_5" data-name="Layer 5">
    <rect class="cls-1" y=".24" width="1154.94" height="589.73"/>
  </g>
</svg>